<?xml version="1.0" standalone="no"?>
<svg xmlns="http://www.w3.org/2000/svg" viewBox="0 0 94.359 108.957" width="94.359" height="108.957"><polygon fill="none" stroke="#415a77" stroke-width="3" points="92.859,27.98925 92.859,80.96775 47.1795,107.457 1.5,80.96775 1.5,27.98925 47.1795,1.5"></polygon><path fill="#1b263b" fill-rule="nonzero" d="M3.06 9.57L3.06 9.57Q3.06 10.39 3.47 11.09Q3.87 11.80 4.53 12.33Q5.18 12.85 6.03 13.15Q6.88 13.44 7.77 13.44L7.77 13.44Q8.04 13.44 8.33 13.39Q8.61 13.34 8.85 13.22Q9.08 13.10 9.23 12.90Q9.38 12.70 9.38 12.40L9.38 12.40Q9.38 11.83 8.98 11.27Q8.57 10.71 7.92 10.15Q7.26 9.60 6.41 9.04Q5.56 8.49 4.69 7.94Q3.81 7.40 2.97 6.84Q2.12 6.29 1.46 5.74Q0.81 5.18 0.40 4.61Q0 4.05 0 3.47L0 3.47Q0 2.93 0.28 2.45Q0.56 1.98 1.03 1.60Q1.49 1.22 2.11 0.92Q2.72 0.62 3.39 0.41Q4.06 0.21 4.74 0.10Q5.41 0 6.03 0L6.03 0Q6.48 0 7.02 0.02Q7.56 0.04 8.03 0.14Q8.50 0.25 8.82 0.45Q9.13 0.66 9.13 1.04L9.13 1.04Q9.13 1.16 9.09 1.35Q9.05 1.53 8.86 1.96L8.86 1.96Q8.67 2.35 8.42 2.55Q8.16 2.75 7.77 2.75L7.77 2.75Q7.21 2.75 6.58 2.62Q5.96 2.49 5.33 2.49L5.33 2.49Q4.99 2.49 4.64 2.52Q4.29 2.56 4.01 2.65Q3.72 2.73 3.54 2.91Q3.36 3.08 3.36 3.34L3.36 3.34Q3.36 3.60 3.74 3.92Q4.12 4.25 4.74 4.65Q5.36 5.04 6.15 5.52Q6.95 5.99 7.77 6.53Q8.60 7.07 9.39 7.68Q10.19 8.29 10.81 8.96Q11.43 9.64 11.81 10.39Q12.18 11.14 12.18 11.95L12.18 11.95Q12.18 12.93 11.73 13.69Q11.28 14.44 10.57 14.94Q9.86 15.45 9.00 15.70Q8.13 15.96 7.31 15.96L7.31 15.96Q6.48 15.96 5.63 15.76Q4.77 15.56 3.98 15.20Q3.19 14.83 2.50 14.32Q1.80 13.81 1.30 13.17Q0.79 12.54 0.50 11.80Q0.21 11.06 0.21 10.25L0.21 10.25Q0.21 9.91 0.25 9.56Q0.30 9.21 0.42 8.95Q0.55 8.68 0.77 8.51Q0.98 8.34 1.33 8.34L1.33 8.34Q1.44 8.34 1.57 8.36Q1.71 8.38 2.05 8.49L2.05 8.49Q2.45 8.61 2.75 8.88Q3.06 9.15 3.06 9.57Z" transform="translate(41.089, 22.501)"></path><g fill="#1b263b" color="#1b263b" transform="translate(33.10542592592593 46.456078125000005) scale(0.7407408)"><svg width="38.0" height="54.0" x="0.0" y="0.0" viewBox="0 0 38 54"><path fill="currentColor" fill-rule="evenodd" d="M13.52 10.679c1.449.219 1.812-.755 2.187-1.839.948-2.744 3.142-4.462 5.424-6.088.104-.074.286-.072.43-.06.138.012.272.082.655.206-2.719 4.2-7.031 7.074-8.746 12.142-2.214-2.111-4.088-4.143-5.808-6.37 2.073-1.207 4.614-.26 5.857 2.009m13.146 7.3c2.926-2.084 7.793-.67 9.733 2.614 1.594 2.7 2.227 5.465.83 8.476-.549 1.183-.986 2.424-1.393 3.664-.441 1.346-1.814 1.84-2.5 3.08-1.107 2-2.809 3.666-4.26 5.471-.092.116-.207.215-.29.335-.861 1.248-.552 3.252-2.438 3.842.356 1.228-.856 1.756-1.181 2.683-.077.212-.189.517-.357.578-1.882.663-2.03 2.09-1.706 3.765.067.34.01.704.01 1.513-2.7-1.407-2.36-4.134-3.535-5.894C12.135 47.52 6.84 43.133 2.14 37.962c-3.652-4.019-2.138-10.221.872-12.808 2.216-1.904 5.329-2.246 7.748-.663 2.067 1.354 4.053 2.83 6.246 4.372.357-.77.623-1.523 1.029-2.188 2.187-3.59 5.238-6.28 8.63-8.696zm6.899 3.456c-.913-.349-2.067-.725-2.91-.451-1.846.598-3.692 1.365-5.071 2.893-1.077 1.193-2.099 2.469-3.332 3.473-.822.668-1.27 1.411-1.454 2.36-.246 1.274-.403 2.567-.615 3.96-1.788 1.129-1.791 1.132-3.447-.164-.288-.225-.512-.546-.817-.737-1.863-1.155-3.688-2.396-5.643-3.367-.651-.323-1.812-.209-2.46.18-1.687 1.015-2.537 4.689-1.54 6.452 1.286 2.273 3.014 4.216 5.227 5.597 2.166 1.353 4.444 2.529 6.688 3.752.362.195.81.23 1.248.346.59-1.757 1.108-3.438 1.716-5.084.955-2.581 2.23-4.955 4.134-6.999 2.255-2.421 4.39-4.959 6.536-7.479a28.18 28.18 0 0 0 2.101-2.843c.454-.693.487-1.564-.361-1.889zm-14.5-20.312c3.177-2.014 5.121-1.29 6.6 2.12.488 1.121.375 2.15-.182 3.12-.54.942-1.15 1.88-1.903 2.66-3.338 3.467-5.727 7.493-7.63 11.95-1.707.087-1.672-1.714-2.673-2.54-.364-.03-.817-.155-1.241-.092-2.34.347-3.825-.97-5.021-2.592-1.252-1.695-2.342-3.51-3.405-5.328-1.422-2.429-.01-4.704 2.885-5.034C8.98 5.105 11.2 5.36 12.987 7.25c.083.087.268.08.562.158.754-1.124 1.342-2.24 2.16-3.16 1.01-1.139 2.078-2.316 3.355-3.125z"></path></svg></g></svg>